<mxfile host="app.diagrams.net" modified="2023-12-02T21:36:37.504Z" agent="Mozilla/5.0 (Windows NT 10.0; Win64; x64; rv:120.0) Gecko/20100101 Firefox/120.0" version="22.1.5" etag="G95F-PiI9u9-65OlaENJ" type="github">
  <diagram name="Seite-1" id="bEgHX2cRTCiz1fe-n2hY">
    <mxGraphModel>
      <root>
        <mxCell id="0" />
        <mxCell id="1" parent="0" />
      </root>
    </mxGraphModel>
  </diagram>
</mxfile>
